<svg xmlns:xlink="http://www.w3.org/1999/xlink" xmlns="http://www.w3.org/2000/svg" width="53" height="53" viewBox="0 0 53 53" fill="none">
<path d="M5.6416 51.4473H2.86738C2.14246 51.4473 1.55273 50.8575 1.55273 50.1326V11.5917H43.7198C44.1487 11.5917 44.4962 11.2442 44.4962 10.8153C44.4962 10.3864 44.1487 10.0389 43.7198 10.0389H1.55273V2.86738C1.55273 2.14246 2.14246 1.55273 2.86738 1.55273H5.6416C6.07047 1.55273 6.41797 1.20523 6.41797 0.776367C6.41797 0.347502 6.07047 0 5.6416 0H2.86738C1.28629 0 0 1.28629 0 2.86738V50.1326C0 51.7137 1.28629 53 2.86738 53H5.6416C6.07047 53 6.41797 52.6525 6.41797 52.2236C6.41797 51.7948 6.07047 51.4473 5.6416 51.4473Z" fill="#3086B9"/>
<path d="M50.1326 0H9.26465C8.83578 0 8.48828 0.347502 8.48828 0.776367C8.48828 1.20523 8.83578 1.55273 9.26465 1.55273H50.1326C50.8575 1.55273 51.4473 2.14246 51.4473 2.86738V10.0389H47.3429C46.914 10.0389 46.5665 10.3864 46.5665 10.8153C46.5665 11.2442 46.914 11.5917 47.3429 11.5917H51.4473V50.1326C51.4473 50.8575 50.8575 51.4473 50.1326 51.4473H9.26465C8.83578 51.4473 8.48828 51.7948 8.48828 52.2236C8.48828 52.6525 8.83578 53 9.26465 53H50.1326C51.7137 53 53 51.7137 53 50.1326V2.86738C53 1.28629 51.7137 0 50.1326 0V0Z" fill="#3086B9"/>
<path d="M49.6539 5.79565C49.6539 4.44498 48.555 3.34616 47.2044 3.34616C45.8538 3.34616 44.755 4.44498 44.755 5.79565C44.755 7.14622 45.8538 8.24504 47.2044 8.24504C48.555 8.24504 49.6539 7.14622 49.6539 5.79565ZM46.3077 5.79565C46.3077 5.30126 46.71 4.8989 47.2044 4.8989C47.6988 4.8989 48.1011 5.30126 48.1011 5.79565C48.1011 6.29004 47.6988 6.69231 47.2044 6.69231C46.71 6.69231 46.3077 6.29015 46.3077 5.79565Z" fill="#3086B9"/>
<path d="M42.9615 5.79565C42.9615 4.44498 41.8627 3.34616 40.512 3.34616C39.1614 3.34616 38.0626 4.44498 38.0626 5.79565C38.0626 7.14622 39.1614 8.24504 40.512 8.24504C41.8627 8.24504 42.9615 7.14622 42.9615 5.79565ZM39.6153 5.79565C39.6153 5.30126 40.0176 4.8989 40.512 4.8989C41.0064 4.8989 41.4087 5.30126 41.4087 5.79565C41.4087 6.29004 41.0064 6.69231 40.512 6.69231C40.0176 6.69231 39.6153 6.29015 39.6153 5.79565Z" fill="#3086B9"/>
<path d="M36.2692 5.79565C36.2692 4.44498 35.1704 3.34616 33.8197 3.34616C32.4691 3.34616 31.3703 4.44498 31.3703 5.79565C31.3703 7.14622 32.4691 8.24504 33.8197 8.24504C35.1704 8.24504 36.2692 7.14622 36.2692 5.79565ZM32.923 5.79565C32.923 5.30126 33.3253 4.8989 33.8197 4.8989C34.3141 4.8989 34.7164 5.30126 34.7164 5.79565C34.7164 6.29004 34.3141 6.69231 33.8197 6.69231C33.3253 6.69231 32.923 6.29015 32.923 5.79565Z" fill="#3086B9"/>
<path d="M25.5144 14.9976V16.6707C25.5144 17.5601 26.2379 18.2836 27.1273 18.2836H48.0409C48.9303 18.2836 49.6538 17.5601 49.6538 16.6707V14.9976C49.6538 14.1081 48.9303 13.3847 48.0409 13.3847H27.1274C26.238 13.3847 25.5144 14.1081 25.5144 14.9976ZM48.1011 14.9976V16.6707C48.1011 16.7038 48.0741 16.7308 48.041 16.7308H27.1274C27.0943 16.7308 27.0673 16.7038 27.0673 16.6707V14.9976C27.0673 14.9644 27.0943 14.9374 27.1274 14.9374H48.041C48.0741 14.9374 48.1011 14.9644 48.1011 14.9976Z" fill="#3086B9"/>
<path d="M34.6563 21.6297C35.0852 21.6297 35.4327 21.2822 35.4327 20.8533C35.4327 20.4245 35.0852 20.077 34.6563 20.077H30.4735C30.0447 20.077 29.6972 20.4245 29.6972 20.8533C29.6972 21.2822 30.0447 21.6297 30.4735 21.6297H34.6563Z" fill="#3086B9"/>
<path d="M48.8775 20.077H38.0021C37.5733 20.077 37.2258 20.4245 37.2258 20.8533C37.2258 21.2822 37.5733 21.6297 38.0021 21.6297H48.8775C49.3064 21.6297 49.6539 21.2822 49.6539 20.8533C49.6539 20.4245 49.3062 20.077 48.8775 20.077Z" fill="#3086B9"/>
<path d="M25.5144 24.1995C25.5144 24.6283 25.8619 24.9758 26.2908 24.9758H40.8257C41.2546 24.9758 41.6021 24.6283 41.6021 24.1995C41.6021 23.7706 41.2546 23.4231 40.8257 23.4231H26.2908C25.862 23.4231 25.5144 23.7707 25.5144 24.1995Z" fill="#3086B9"/>
<path d="M48.8775 23.4231H44.1717C43.7428 23.4231 43.3953 23.7706 43.3953 24.1995C43.3953 24.6283 43.7428 24.9758 44.1717 24.9758H48.8775C49.3063 24.9758 49.6539 24.6283 49.6539 24.1995C49.6539 23.7706 49.3062 23.4231 48.8775 23.4231Z" fill="#3086B9"/>
<path d="M48.8775 26.7693H26.2908C25.8619 26.7693 25.5144 27.1169 25.5144 27.5457C25.5144 27.9746 25.8619 28.3221 26.2908 28.3221H48.8774C49.3063 28.3221 49.6538 27.9746 49.6538 27.5457C49.6538 27.1169 49.3063 26.7693 48.8775 26.7693Z" fill="#3086B9"/>
<path d="M26.2908 31.6682H40.8257C41.2546 31.6682 41.6021 31.3207 41.6021 30.8918C41.6021 30.463 41.2546 30.1155 40.8257 30.1155H26.2908C25.8619 30.1155 25.5144 30.463 25.5144 30.8918C25.5144 31.3207 25.862 31.6682 26.2908 31.6682Z" fill="#3086B9"/>
<path d="M13.5653 16.9384C13.5146 16.7503 13.3128 16.6368 13.114 16.6848C12.3137 16.8784 11.6479 17.3542 11.2395 18.0244C11.137 18.1926 11.1978 18.4076 11.3753 18.5046C11.4338 18.5366 11.4976 18.5518 11.5605 18.5518C11.6888 18.5518 11.8135 18.4887 11.8822 18.376C12.1899 17.8711 12.6926 17.5124 13.2976 17.366C13.4962 17.318 13.616 17.1266 13.5653 16.9384Z" fill="#3086B9"/>
<path d="M14.3748 16.634C14.3692 16.6331 14.3636 16.6322 14.3577 16.6314C14.1554 16.602 13.9673 16.7334 13.9359 16.925C13.9046 17.1163 14.0435 17.2956 14.2449 17.3263C14.2664 17.3298 14.2877 17.3315 14.3088 17.3315C14.4847 17.3315 14.6409 17.2125 14.6735 17.0428C14.7101 16.8518 14.5764 16.6688 14.3748 16.634Z" fill="#3086B9"/>
<path d="M21.1061 25.6452C20.8329 25.5713 20.5375 25.5058 20.2243 25.4491C20.2066 25.4447 20.1886 25.4416 20.1703 25.4398C19.2574 25.2786 18.1973 25.1918 17.0922 25.1918C16.4799 25.1918 15.8819 25.2188 15.3145 25.2698L17.6074 21.5075C18.183 20.563 18.3349 19.459 18.035 18.3988C17.7351 17.3387 17.0209 16.4546 16.024 15.9093C13.9582 14.7795 11.3074 15.4523 10.1148 17.4093L7.34708 21.9507C7.34682 21.9511 7.34652 21.9514 7.3463 21.9518C7.34608 21.9521 7.34589 21.9525 7.34567 21.9529L4.5779 26.4945C4.0023 27.439 3.85049 28.543 4.15033 29.6032C4.45017 30.6633 5.16438 31.5475 6.16132 32.0927C6.82094 32.4535 7.56168 32.6389 8.313 32.6389C8.62954 32.6389 8.94801 32.606 9.263 32.5394C10.1013 32.3621 10.8549 31.9597 11.4392 31.3861C11.7329 31.7032 12.2795 31.9711 13.075 32.1864C14.153 32.4782 15.5796 32.6389 17.092 32.6389C18.6045 32.6389 20.0311 32.4782 21.109 32.1864C22.3636 31.8469 22.9998 31.3766 22.9998 30.7887V27.0442C22.9999 27.0434 23 27.0428 23 27.042C23 26.4553 22.3628 25.9853 21.1061 25.6452ZM17.0922 25.8948C17.6764 25.8949 18.2454 25.9202 18.784 25.968L14.07 27.9391C13.7903 27.8877 13.5263 27.8289 13.2822 27.7629C12.1701 27.4618 11.9266 27.1404 11.9266 27.042C11.9266 26.9436 12.1701 26.6222 13.2822 26.3211C14.2977 26.0463 15.6508 25.8948 17.0922 25.8948ZM10.7575 17.7608C11.7455 16.1396 13.9416 15.5822 15.6529 16.5182C16.4781 16.9696 17.0695 17.7021 17.3181 18.5808C17.5667 19.4596 17.4412 20.3741 16.9648 21.156L14.3914 25.3785C14.3813 25.3799 14.3715 25.3816 14.3615 25.3831L8.17458 21.9989L10.7575 17.7608ZM11.1844 27.0402C11.1844 27.0409 11.1843 27.0414 11.1843 27.0421V30.5876C10.1079 31.9379 8.0883 32.3349 6.53245 31.4838C5.70718 31.0324 5.11577 30.2999 4.86721 29.4212C4.61865 28.5424 4.74419 27.6279 5.2206 26.846L7.80352 22.6077L13.2672 25.5964C13.2032 25.6123 13.14 25.6284 13.0782 25.6452C11.8229 25.985 11.1857 26.4544 11.1844 27.0402ZM22.2578 30.7887C22.2578 30.8876 22.0148 31.2102 20.9053 31.5105C19.8918 31.7848 18.5376 31.9359 17.0921 31.9359C15.6467 31.9359 14.2925 31.7848 13.279 31.5105C12.1694 31.2102 11.9264 30.8876 11.9264 30.7887V28.002C12.2225 28.1655 12.6068 28.3113 13.0783 28.4389C13.3694 28.5178 13.6864 28.5867 14.0226 28.6458C14.039 28.6497 14.0555 28.6526 14.0723 28.6544C14.972 28.8091 16.0104 28.8923 17.0922 28.8923C18.6006 28.8923 20.0261 28.7313 21.1061 28.439C21.5774 28.3114 21.9617 28.1656 22.2578 28.0021V30.7887ZM22.2578 27.0421V27.0431C22.2563 27.1426 22.0109 27.4628 20.9022 27.763C19.8867 28.0378 18.5336 28.1892 17.0922 28.1892C16.5332 28.1892 15.9879 28.1662 15.47 28.1223L20.1724 26.1561C20.4304 26.2049 20.6752 26.2598 20.9022 26.3212C22.0124 26.6217 22.2569 26.9425 22.2578 27.0415C22.2578 27.0417 22.2578 27.0419 22.2578 27.0421Z" fill="#3086B9"/>
<path d="M48.8775 30.1155H44.1717C43.7428 30.1155 43.3953 30.463 43.3953 30.8918C43.3953 31.3207 43.7428 31.6682 44.1717 31.6682H48.8775C49.3063 31.6682 49.6539 31.3207 49.6539 30.8918C49.6539 30.463 49.3062 30.1155 48.8775 30.1155Z" fill="#3086B9"/>
<path d="M48.8775 33.4616H26.2908C25.8619 33.4616 25.5144 33.8091 25.5144 34.238C25.5144 34.6669 25.8619 35.0144 26.2908 35.0144H48.8774C49.3063 35.0144 49.6538 34.6669 49.6538 34.238C49.6538 33.8091 49.3063 33.4616 48.8775 33.4616Z" fill="#3086B9"/>
<path d="M4.12251 38.3605H8.53C8.95886 38.3605 9.30637 38.013 9.30637 37.5841C9.30637 37.1553 8.95886 36.8078 8.53 36.8078H4.12251C3.69365 36.8078 3.34615 37.1553 3.34615 37.5841C3.34615 38.013 3.69375 38.3605 4.12251 38.3605Z" fill="#3086B9"/>
<path d="M48.8775 36.8078H11.8759C11.4471 36.8078 11.0996 37.1553 11.0996 37.5841C11.0996 38.013 11.4471 38.3605 11.8759 38.3605H48.8775C49.3063 38.3605 49.6538 38.013 49.6538 37.5841C49.6538 37.1553 49.3062 36.8078 48.8775 36.8078Z" fill="#3086B9"/>
<path d="M48.8775 40.1539H4.12251C3.69365 40.1539 3.34615 40.5014 3.34615 40.9303C3.34615 41.3592 3.69365 41.7067 4.12251 41.7067H48.8775C49.3064 41.7067 49.6539 41.3592 49.6539 40.9303C49.6539 40.5014 49.3062 40.1539 48.8775 40.1539Z" fill="#3086B9"/>
<path d="M41.6022 44.2765C41.6022 43.8477 41.2547 43.5002 40.8258 43.5002H4.12251C3.69365 43.5002 3.34615 43.8477 3.34615 44.2765C3.34615 44.7054 3.69365 45.0529 4.12251 45.0529H40.8257C41.2546 45.0529 41.6022 44.7053 41.6022 44.2765Z" fill="#3086B9"/>
<path d="M48.8775 43.5002H44.1717C43.7428 43.5002 43.3953 43.8477 43.3953 44.2765C43.3953 44.7054 43.7428 45.0529 44.1717 45.0529H48.8775C49.3063 45.0529 49.6539 44.7054 49.6539 44.2765C49.6539 43.8477 49.3062 43.5002 48.8775 43.5002Z" fill="#3086B9"/>
<path d="M4.12251 46.8463C3.69365 46.8463 3.34615 47.1938 3.34615 47.6227C3.34615 48.0515 3.69365 48.399 4.12251 48.399H26.2908C26.7197 48.399 27.0672 48.0515 27.0672 47.6227C27.0672 47.1938 26.7197 46.8463 26.2908 46.8463H4.12251Z" fill="#3086B9"/>
</svg>