<svg xmlns:xlink="http://www.w3.org/1999/xlink" xmlns="http://www.w3.org/2000/svg" width="48" height="46" viewBox="0 0 48 46" fill="none">
<path fill-rule="evenodd" clip-rule="evenodd" d="M21.9744 35.17C19.9437 33.1893 14.6819 24.4067 14.0533 24.1465C11.4625 24.048 6.15502 26.8558 4.41262 27.8519C0.317551 30.193 0.507066 32.4339 0.525381 37.7268C0.555788 46.5053 2.23709 45.6387 9.5317 45.6706L34.4781 45.6733C37.7294 45.6691 38.196 45.6876 41.1366 44.9242C43.987 44.1843 44.6265 44.8647 46.5049 42.9886C47.6893 41.8057 48.4243 39.725 47.6698 37.7669C46.7532 35.3883 45.9801 35.655 44.0186 34.3766C50.5502 31.7172 46.441 27.4909 44.8762 27.1248C42.4723 26.5623 40.7046 28.5076 39.6225 28.2365C39.1393 28.1154 36.4324 26.2341 35.4361 25.7345C34.6619 25.3461 31.3815 23.8409 30.4848 23.8832C29.2967 23.9393 28.6726 25.6237 27.3933 27.4314L21.9744 35.17ZM39.8444 42.6502C43.3163 45.3448 48.708 40.6547 45.704 37.4088C43.7192 38.9525 41.8449 41.24 39.8444 42.6502ZM38.4888 41.6133C39.4589 41.2711 40.8598 39.7384 41.6267 39.0103C42.4858 38.1946 44.0647 37.116 44.5589 36.095C38.7613 34.6951 37.0172 38.1467 38.4888 41.6133ZM38.935 30.242L40.8899 34.1537C43.5755 33.3581 46.8125 32.2329 45.7931 29.7145C44.6326 26.847 41.0804 29.501 38.935 30.242ZM39.4166 34.7775L37.4251 31.0242C36.0584 31.5806 34.6756 32.2047 33.2896 32.7959C28.8334 34.6968 31.4373 38.6568 35.184 36.7763C36.3961 36.168 38.4106 35.4791 39.4166 34.7775ZM22.0049 37.1689C20.4247 36.617 14.932 27.6914 13.28 25.5566C10.02 26.2123 3.68638 29.253 2.57637 31.3993C1.77808 32.9428 2.00069 36.9138 2.03152 38.8615C2.06822 41.1754 2.07388 44.1538 4.77715 44.2989C8.73495 44.5113 36.9803 44.6048 39.1081 44.0111C36.9698 42.2404 35.9508 41.3668 36.6924 37.6924C35.0456 38.2285 33.6525 39.3332 31.6417 38.5025C30.3421 37.9655 29.0401 36.1206 29.5849 34.1909C30.2986 31.6633 35.5251 30.6897 38.0562 29.1057L37.7966 28.848C37.6543 28.73 37.5377 28.632 37.3726 28.5186C35.6123 27.3087 32.8562 25.9236 30.7362 25.3426C29.3279 26.54 23.8182 36.1215 22.0049 37.1689Z" fill="#3086B9"/>
<path fill-rule="evenodd" clip-rule="evenodd" d="M16.0751 1.12773C13.1678 1.78221 12.0624 4.73287 11.5652 7.83112C10.5853 13.9372 10.4843 19.7102 17.5642 22.7096C23.0903 25.0507 30.3125 22.6258 32.4248 16.8021C33.6294 13.481 33.4567 1.6534 27.4592 1.03081C26.0849 0.888174 17.102 0.896537 16.0751 1.12773ZM12.6377 12.6712L31.4138 12.7163C31.5442 9.92286 31.0727 2.84853 27.2128 2.39251C25.8518 2.23167 23.4741 2.35939 22.005 2.35939C17.9311 2.35939 15.6486 1.56073 14.0409 4.61969C13.0775 6.45303 12.6056 10.4271 12.6377 12.6712ZM31.4838 14.1016L12.5875 14.0864C13.7495 24.8128 30.2158 24.7598 31.4838 14.1016Z" fill="#3086B9"/>
<path fill-rule="evenodd" clip-rule="evenodd" d="M21.402 4.51558L21.2255 6.36802L19.1804 6.48094C19.1877 8.0647 19.5799 7.72585 21.2794 7.75016C21.2785 9.24285 20.933 9.67688 22.5806 9.63135L22.8365 7.78759C24.1892 7.68952 24.9891 8.06457 24.85 6.77947C24.3304 6.38905 23.7315 6.38294 22.8268 6.34873C22.7584 5.35103 22.8317 4.04245 21.402 4.51558Z" fill="#3086B9"/>
</svg>