<svg xmlns:xlink="http://www.w3.org/1999/xlink" xmlns="http://www.w3.org/2000/svg" width="73" height="73" viewBox="0 0 73 73" fill="none">
<g clip-path="url(#clip0)">
<path d="M48.0349 24.1104C47.4447 24.1104 46.9638 23.6295 46.9638 23.0393C46.9638 22.4492 47.4447 21.9724 48.0349 21.9724H52.5817C53.1718 21.9724 53.6527 22.4494 53.6527 23.0393C53.6527 23.6295 53.1718 24.1104 52.5817 24.1104H48.0349ZM38.9208 62.8172C38.3307 62.8172 37.8539 62.3362 37.8539 61.7462C37.8539 61.1562 38.3308 60.6751 38.9208 60.6751H66.9213C67.4265 60.6751 67.7943 60.5661 68.0651 60.3559C68.3763 60.1174 68.631 59.7213 68.8734 59.1919L70.6476 55.2998C71.0922 54.3257 70.9144 53.97 69.8393 53.97C62.2734 53.97 54.7074 53.97 47.1415 53.97C46.8586 54.835 46.8747 55.2432 45.642 56.1687C44.9549 56.6899 44.098 56.9972 43.1846 56.9972H29.8189C28.9014 56.9972 28.0487 56.6899 27.3576 56.1687C26.125 55.243 26.0925 54.7864 25.8622 53.97C18.2963 53.97 10.7263 53.97 3.16039 53.97C2.08934 53.97 1.90741 54.3257 2.35211 55.2998L4.13049 59.1919C4.36888 59.7213 4.62766 60.1174 4.93876 60.3559C5.20952 60.5661 5.57324 60.6751 6.07853 60.6751H34.079C34.6692 60.6751 35.1501 61.1562 35.1501 61.7462C35.1501 62.3363 34.6692 62.8172 34.079 62.8172H6.07853C5.07222 62.8172 4.28804 62.5504 3.63346 62.0452C3.01909 61.5682 2.5704 60.9095 2.19043 60.0769L0.416186 56.1849C0.137303 55.5785 0 55.0047 0 54.4872C0 53.974 0.129318 53.5091 0.383963 53.1051C0.6426 52.6969 1.01444 52.3776 1.49137 52.1594C1.95617 51.9452 2.51394 51.832 3.16067 51.832H3.50015V14.7702C3.50015 13.5093 4.01343 12.3614 4.84595 11.5289C5.67447 10.7003 6.82222 10.1831 8.08332 10.1831H64.9168C66.1778 10.1831 67.3257 10.7003 68.1582 11.5289C68.9867 12.3614 69.5041 13.5093 69.5041 14.7702V51.832H69.8396C70.4862 51.832 71.0441 51.9452 71.5088 52.1594C71.9897 52.3776 72.3575 52.697 72.6162 53.1051C72.8708 53.5093 73 53.9741 73 54.4872C73 55.0047 72.8627 55.5785 72.5878 56.1848L70.8096 60.0769C70.4296 60.9094 69.9809 61.5682 69.3665 62.0452C68.7118 62.5504 67.9278 62.8172 66.9215 62.8172H38.9208ZM5.63797 51.832H25.9472C26.3675 51.832 26.8526 52.0017 27.2445 52.3453C27.5477 52.6079 27.8063 52.9798 27.9398 53.4567C28.053 53.8649 28.3035 54.2165 28.635 54.463C28.9623 54.7095 29.3747 54.8551 29.8192 54.8551H43.1849C43.6295 54.8551 44.0377 54.7095 44.365 54.463C44.6965 54.2165 44.947 53.8649 45.0601 53.4567C45.1936 52.9798 45.4522 52.6079 45.7593 52.3453C46.1514 52.0017 46.6363 51.832 47.0566 51.832H67.3659V14.7702C67.3659 14.0993 67.087 13.485 66.6464 13.0405C66.2019 12.5999 65.5875 12.321 64.9167 12.321H8.08332C7.41235 12.321 6.80212 12.5999 6.35756 13.0405C5.913 13.485 5.63811 14.0994 5.63811 14.7702V51.832H5.63797ZM63.4698 24.6761C63.4698 24.0862 63.9509 23.6092 64.5408 23.6092C65.131 23.6092 65.6079 24.0862 65.6079 24.6761V47.7822C65.6079 48.833 64.7429 49.6979 63.6921 49.6979H9.31192C8.78652 49.6979 8.3056 49.4837 7.958 49.132L7.95401 49.136C7.60626 48.7884 7.39225 48.3115 7.39225 47.7821V44.3224C7.39225 43.7323 7.87331 43.2514 8.46329 43.2514C9.05328 43.2514 9.53021 43.7324 9.53021 44.3224V47.5598H63.4698V24.6761ZM9.53021 39.4766C9.53021 40.0667 9.05328 40.5477 8.46329 40.5477C7.87331 40.5477 7.39225 40.0667 7.39225 39.4766V16.3747C7.39225 15.3197 8.25713 14.455 9.31206 14.455H63.6922C64.2216 14.455 64.6985 14.6733 65.0463 15.0168C65.3939 15.3644 65.608 15.8453 65.608 16.3747V19.8343C65.608 20.4245 65.131 20.9012 64.541 20.9012C63.951 20.9012 63.4699 20.4243 63.4699 19.8343V16.593H9.53021V39.4766ZM22.5887 30.4153L18.2722 34.7278C17.6094 35.3946 17.2779 36.2717 17.2779 37.1487C17.2779 38.0257 17.6094 38.9027 18.2722 39.5657C18.9391 40.2326 19.8161 40.5639 20.6931 40.5639C21.5701 40.5639 22.4471 40.2324 23.1099 39.5657L27.4263 35.2532L22.5887 30.4153ZM16.7606 33.2161L26.9011 23.0757C27.9842 21.9925 29.411 21.451 30.8335 21.451C32.256 21.451 33.6828 21.9925 34.7661 23.0757C35.8451 24.1589 36.3868 25.5815 36.3868 27.0082C36.3868 28.4308 35.8451 29.8536 34.7661 30.9366L24.6217 41.077C23.5425 42.1602 22.1157 42.7017 20.6932 42.7017C19.2666 42.7017 17.8438 42.1602 16.7608 41.077C15.6776 39.9979 15.1401 38.5711 15.1401 37.1486C15.1399 35.7221 15.6775 34.2993 16.7606 33.2161ZM33.2505 24.5873C32.5877 23.9245 31.7107 23.5931 30.8337 23.5931C29.9567 23.5931 29.0797 23.9245 28.4167 24.5873L24.1003 28.9037L28.9381 33.7415L33.2505 29.4251C33.9175 28.7624 34.2488 27.8853 34.2488 27.0082C34.2488 26.1272 33.9175 25.2502 33.2505 24.5873ZM16.6273 26.123C16.0372 26.123 15.5604 25.6421 15.5604 25.052C15.5604 24.4618 16.0373 23.9851 16.6273 23.9851H17.67V22.9422C17.67 22.3523 18.1469 21.8712 18.737 21.8712C19.3312 21.8712 19.8081 22.3523 19.8081 22.9422V23.9851H20.8508C21.4409 23.9851 21.9177 24.462 21.9177 25.052C21.9177 25.642 21.4408 26.123 20.8508 26.123H19.8081V27.1617C19.8081 27.7558 19.3312 28.2328 18.737 28.2328C18.1469 28.2328 17.67 27.7558 17.67 27.1617V26.123H16.6273ZM30.676 40.1718C30.0858 40.1718 29.6049 39.6909 29.6049 39.1008C29.6049 38.5106 30.0858 38.0337 30.676 38.0337H31.7186V36.9909C31.7186 36.4009 32.1956 35.9199 32.7856 35.9199C33.3757 35.9199 33.8566 36.4009 33.8566 36.9909V38.0337H34.8954C35.4895 38.0337 35.9665 38.5106 35.9665 39.1008C35.9665 39.6909 35.4895 40.1718 34.8954 40.1718H33.8566V41.2105C33.8566 41.8006 33.3757 42.2815 32.7856 42.2815C32.1954 42.2815 31.7186 41.8005 31.7186 41.2105V40.1718H30.676ZM41.3823 28.5925C40.7922 28.5925 40.3113 28.1116 40.3113 27.5214C40.3113 26.9313 40.7922 26.4545 41.3823 26.4545H59.2342C59.8283 26.4545 60.3053 26.9314 60.3053 27.5214C60.3053 28.1116 59.8283 28.5925 59.2342 28.5925H41.3823ZM41.3823 42.039C40.7922 42.039 40.3113 41.5581 40.3113 40.968C40.3113 40.3778 40.7922 39.9011 41.3823 39.9011H59.2342C59.8283 39.9011 60.3053 40.378 60.3053 40.968C60.3053 41.558 59.8283 42.039 59.2342 42.039H41.3823ZM41.3823 37.5569C40.7922 37.5569 40.3113 37.076 40.3113 36.4859C40.3113 35.8958 40.7922 35.419 41.3823 35.419H59.2342C59.8283 35.419 60.3053 35.8959 60.3053 36.4859C60.3053 37.076 59.8283 37.5569 59.2342 37.5569H41.3823ZM41.3823 33.0747C40.7922 33.0747 40.3113 32.5936 40.3113 32.0037C40.3113 31.4137 40.7922 30.9367 41.3823 30.9367H59.2342C59.8283 30.9367 60.3053 31.4137 60.3053 32.0037C60.3053 32.5938 59.8283 33.0747 59.2342 33.0747H41.3823Z" fill="#3086B9"/>
</g>
<defs>
<clipPath id="clip0">
<rect width="73" height="73" fill="white"/>
</clipPath>
</defs>
</svg>