<svg xmlns:xlink="http://www.w3.org/1999/xlink" xmlns="http://www.w3.org/2000/svg" width="53" height="53" viewBox="0 0 53 53" fill="none">
<path d="M35.8164 33.0215C35.2448 33.0215 34.7812 33.4849 34.7812 34.0566V41.1992C34.7812 44.0531 32.4594 46.375 29.6055 46.375H18.4291C17.8576 46.375 17.3944 46.838 17.3939 47.4094L17.3925 49.4675L14.9218 46.9969C14.7618 46.6298 14.3958 46.375 13.9724 46.375H7.24609C4.39217 46.375 2.07031 44.0531 2.07031 41.1992V25.2578C2.07031 22.4039 4.39217 20.082 7.24609 20.082H17.7012C18.2728 20.082 18.7363 19.6186 18.7363 19.0469C18.7363 18.4752 18.2728 18.0117 17.7012 18.0117H7.24609C3.2506 18.0117 0 21.2623 0 25.2578V41.1992C0 45.1947 3.2506 48.4453 7.24609 48.4453H13.4423L17.6938 52.6968C17.8918 52.8948 18.1565 53 18.426 53C18.5592 53 18.6937 52.9742 18.8215 52.9213C19.2084 52.7613 19.4606 52.3841 19.4609 51.9656L19.4634 48.4453H29.6055C33.601 48.4453 36.8516 45.1947 36.8516 41.1992V34.0566C36.8516 33.4849 36.388 33.0215 35.8164 33.0215Z" fill="#3086B9"/>
<path d="M37.9545 0H35.3346C27.0385 0 20.2891 6.74943 20.2891 15.0456C20.2891 23.3417 27.0385 30.0911 35.3345 30.0911H37.9544C39.2493 30.0911 40.5309 29.9266 41.7731 29.6015L45.6432 33.4695C45.8413 33.6673 46.1059 33.7725 46.3752 33.7725C46.5086 33.7725 46.6432 33.7467 46.7713 33.6936C47.158 33.5334 47.4102 33.156 47.4102 32.7373V26.7483C49.0487 25.4214 50.4098 23.7451 51.3651 21.8725C52.45 19.7457 53 17.4488 53 15.0456C53 6.74943 46.2506 0 37.9545 0ZM45.7521 25.4167C45.4926 25.6123 45.3398 25.9185 45.3398 26.2436V30.2393L42.8067 27.7075C42.6096 27.5106 42.3452 27.4045 42.0749 27.4045C41.9734 27.4045 41.8709 27.4195 41.7709 27.4503C40.5388 27.8289 39.2548 28.0209 37.9545 28.0209H35.3346C28.18 28.0209 22.3594 22.2002 22.3594 15.0456C22.3594 7.891 28.1801 2.07031 35.3346 2.07031H37.9545C45.1091 2.07031 50.9297 7.891 50.9297 15.0456C50.9297 19.1584 49.0426 22.9385 45.7521 25.4167Z" fill="#3086B9"/>
<path d="M41.3062 11.3268C41.1568 9.15968 39.4099 7.41275 37.2426 7.26337C36.0141 7.17901 34.8417 7.59338 33.9443 8.43113C33.0593 9.25729 32.5517 10.4252 32.5517 11.6354C32.5517 12.2071 33.0153 12.6705 33.5869 12.6705C34.1585 12.6705 34.622 12.2071 34.622 11.6354C34.622 10.9875 34.8831 10.387 35.357 9.94464C35.8305 9.50273 36.4493 9.284 37.1004 9.32892C38.242 9.4076 39.1621 10.3277 39.2408 11.4692C39.3203 12.6221 38.5639 13.6409 37.4424 13.8918C36.5338 14.0951 35.8992 14.8847 35.8992 15.8119V18.2989C35.8992 18.8706 36.3628 19.334 36.9344 19.334C37.5061 19.334 37.9695 18.8706 37.9694 18.2989V15.8946C40.0553 15.3907 41.4547 13.4821 41.3062 11.3268Z" fill="#3086B9"/>
<path d="M37.6662 21.6617C37.4737 21.4691 37.2066 21.3584 36.9344 21.3584C36.6621 21.3584 36.3951 21.4691 36.2025 21.6617C36.01 21.8542 35.8992 22.1213 35.8992 22.3935C35.8992 22.6668 36.0101 22.9339 36.2025 23.1264C36.3951 23.319 36.6621 23.4287 36.9344 23.4287C37.2066 23.4287 37.4737 23.319 37.6662 23.1264C37.8588 22.9328 37.9695 22.6668 37.9695 22.3935C37.9695 22.1213 37.8587 21.8542 37.6662 21.6617Z" fill="#3086B9"/>
<path d="M15.5653 24.9384C15.5146 24.7503 15.3128 24.6368 15.114 24.6848C14.3137 24.8784 13.6479 25.3542 13.2395 26.0244C13.137 26.1926 13.1978 26.4076 13.3753 26.5046C13.4338 26.5366 13.4976 26.5518 13.5605 26.5518C13.6888 26.5518 13.8135 26.4887 13.8822 26.376C14.1899 25.8711 14.6926 25.5124 15.2976 25.366C15.4962 25.318 15.616 25.1266 15.5653 24.9384Z" fill="#3086B9"/>
<path d="M16.3748 24.634C16.3692 24.6331 16.3636 24.6322 16.3577 24.6314C16.1554 24.602 15.9673 24.7334 15.9359 24.925C15.9046 25.1163 16.0435 25.2956 16.2449 25.3263C16.2664 25.3298 16.2877 25.3315 16.3088 25.3315C16.4847 25.3315 16.6409 25.2125 16.6735 25.0428C16.7101 24.8518 16.5764 24.6688 16.3748 24.634Z" fill="#3086B9"/>
<path d="M23.1061 33.6452C22.8329 33.5713 22.5375 33.5058 22.2243 33.4491C22.2066 33.4447 22.1886 33.4416 22.1703 33.4398C21.2574 33.2786 20.1973 33.1918 19.0922 33.1918C18.4799 33.1918 17.8819 33.2188 17.3145 33.2698L19.6074 29.5075C20.183 28.563 20.3349 27.459 20.035 26.3988C19.7351 25.3387 19.0209 24.4546 18.024 23.9093C15.9582 22.7795 13.3074 23.4523 12.1148 25.4093L9.34708 29.9507C9.34682 29.9511 9.34652 29.9514 9.3463 29.9518C9.34608 29.9521 9.34589 29.9525 9.34567 29.9529L6.5779 34.4945C6.0023 35.439 5.85049 36.543 6.15033 37.6032C6.45017 38.6633 7.16438 39.5475 8.16132 40.0927C8.82094 40.4535 9.56168 40.6389 10.313 40.6389C10.6295 40.6389 10.948 40.606 11.263 40.5394C12.1013 40.3621 12.8549 39.9597 13.4392 39.3861C13.7329 39.7032 14.2795 39.9711 15.075 40.1864C16.153 40.4782 17.5796 40.6389 19.092 40.6389C20.6045 40.6389 22.0311 40.4782 23.109 40.1864C24.3636 39.8469 24.9998 39.3766 24.9998 38.7887V35.0442C24.9999 35.0434 25 35.0428 25 35.042C25 34.4553 24.3628 33.9853 23.1061 33.6452ZM19.0922 33.8948C19.6764 33.8949 20.2454 33.9202 20.784 33.968L16.07 35.9391C15.7903 35.8877 15.5263 35.8289 15.2822 35.7629C14.1701 35.4618 13.9266 35.1404 13.9266 35.042C13.9266 34.9436 14.1701 34.6222 15.2822 34.3211C16.2977 34.0463 17.6508 33.8948 19.0922 33.8948ZM12.7575 25.7608C13.7455 24.1396 15.9416 23.5822 17.6529 24.5182C18.4781 24.9696 19.0695 25.7021 19.3181 26.5808C19.5667 27.4596 19.4412 28.3741 18.9648 29.156L16.3914 33.3785C16.3813 33.3799 16.3715 33.3816 16.3615 33.3831L10.1746 29.9989L12.7575 25.7608ZM13.1844 35.0402C13.1844 35.0409 13.1843 35.0414 13.1843 35.0421V38.5876C12.1079 39.9379 10.0883 40.3349 8.53245 39.4838C7.70718 39.0324 7.11577 38.2999 6.86721 37.4212C6.61865 36.5424 6.74419 35.6279 7.2206 34.846L9.80352 30.6077L15.2672 33.5964C15.2032 33.6123 15.14 33.6284 15.0782 33.6452C13.8229 33.985 13.1857 34.4544 13.1844 35.0402ZM24.2578 38.7887C24.2578 38.8876 24.0148 39.2102 22.9053 39.5105C21.8918 39.7848 20.5376 39.9359 19.0921 39.9359C17.6467 39.9359 16.2925 39.7848 15.279 39.5105C14.1694 39.2102 13.9264 38.8876 13.9264 38.7887V36.002C14.2225 36.1655 14.6068 36.3113 15.0783 36.4389C15.3694 36.5178 15.6864 36.5867 16.0226 36.6458C16.039 36.6497 16.0555 36.6526 16.0723 36.6544C16.972 36.8091 18.0104 36.8923 19.0922 36.8923C20.6006 36.8923 22.0261 36.7313 23.1061 36.439C23.5774 36.3114 23.9617 36.1656 24.2578 36.0021V38.7887ZM24.2578 35.0421V35.0431C24.2563 35.1426 24.0109 35.4628 22.9022 35.763C21.8867 36.0378 20.5336 36.1892 19.0922 36.1892C18.5332 36.1892 17.9879 36.1662 17.47 36.1223L22.1724 34.1561C22.4304 34.2049 22.6752 34.2598 22.9022 34.3212C24.0124 34.6217 24.2569 34.9425 24.2578 35.0415C24.2578 35.0417 24.2578 35.0419 24.2578 35.0421Z" fill="#3086B9"/>
</svg>