<svg xmlns:xlink="http://www.w3.org/1999/xlink" xmlns="http://www.w3.org/2000/svg" width="53" height="53" viewBox="0 0 53 53" fill="none">
<g clip-path="url(#clip0)">
<path d="M51.675 22.949C51.6734 22.9478 51.6722 22.9461 51.6709 22.9449L30.0511 1.32589C29.1296 0.403955 27.9044 -0.103516 26.6011 -0.103516C25.2979 -0.103516 24.0726 0.403955 23.1507 1.32589L1.54219 22.934C1.53491 22.9413 1.52723 22.949 1.52035 22.9563C-0.372047 24.8596 -0.368813 27.9477 1.52965 29.8461C2.397 30.7139 3.54215 31.2161 4.76695 31.2691C4.81709 31.2739 4.86723 31.2763 4.91777 31.2763H5.77906V47.1862C5.77906 50.335 8.34107 52.8966 11.4898 52.8966H19.9482C20.8058 52.8966 21.5009 52.2011 21.5009 51.3438V38.8702C21.5009 37.4335 22.6699 36.2649 24.1066 36.2649H29.0956C30.5323 36.2649 31.7009 37.4335 31.7009 38.8702V51.3438C31.7009 52.2011 32.396 52.8966 33.2536 52.8966H41.712C44.8611 52.8966 47.4227 50.335 47.4227 47.1862V31.2763H48.2218C49.5246 31.2763 50.7498 30.7689 51.6722 29.8465C53.5726 27.9452 53.5734 24.8515 51.675 22.949ZM49.4761 27.6509C49.1409 27.9861 48.6953 28.1709 48.2218 28.1709H45.87C45.0124 28.1709 44.3173 28.866 44.3173 29.7236V47.1862C44.3173 48.6225 43.1487 49.7911 41.712 49.7911H34.8064V38.8702C34.8064 35.7215 32.2447 33.1594 29.0956 33.1594H24.1066C20.9575 33.1594 18.3955 35.7215 18.3955 38.8702V49.7911H11.4898C10.0535 49.7911 8.88453 48.6225 8.88453 47.1862V29.7236C8.88453 28.866 8.18944 28.1709 7.3318 28.1709H5.02048C4.99622 28.1692 4.97236 28.168 4.9477 28.1676C4.48511 28.1595 4.05123 27.976 3.72613 27.6505C3.03467 26.959 3.03467 25.8337 3.72613 25.1418C3.72653 25.1418 3.72653 25.1414 3.72694 25.141L3.72815 25.1398L25.3472 3.52156C25.682 3.18635 26.1272 3.00196 26.6011 3.00196C27.0746 3.00196 27.5198 3.18635 27.855 3.52156L49.4692 25.1353C49.4724 25.1386 49.4761 25.1418 49.4793 25.145C50.1671 25.8377 50.1659 26.9606 49.4761 27.6509Z" fill="white"/>
</g>
<defs>
<clipPath id="clip0">
<rect width="53" height="53" fill="white"/>
</clipPath>
</defs>
</svg>